<svg xmlns="http://www.w3.org/2000/svg" viewBox="612 3029.007 66 66.987">
  <defs>
    <style>
      .cls-1 {
        fill: #43a06d;
      }
    </style>
  </defs>
  <path id="Shape_5" data-name="Shape 5" class="cls-1" d="M645,3029.007c-18.237,0-33,15.037-33,33.521a33,33,0,1,0,66,0c0-18.485-14.772-33.521-33-33.521Zm14.8,20.313a3.3,3.3,0,0,1,2.323.973l2.973,3.015a3.317,3.317,0,0,1,0,4.642l-18.377,18.572-2.973,3.015a3.2,3.2,0,0,1-4.58,0l-2.973-3.015a2.8,2.8,0,0,1-.409-.483l-9.281-9.346a3.317,3.317,0,0,1,0-4.643l2.973-3.015a3.189,3.189,0,0,1,4.58,0l7.432,7.537,16.054-16.281a3.14,3.14,0,0,1,2.258-.973Z"/>
</svg>
