<svg xmlns="http://www.w3.org/2000/svg" width="153" height="153" viewBox="0 0 153 153">
  <metadata><?xpacket begin="﻿" id="W5M0MpCehiHzreSzNTczkc9d"?>
<x:xmpmeta xmlns:x="adobe:ns:meta/" x:xmptk="Adobe XMP Core 5.6-c138 79.159824, 2016/09/14-01:09:01        ">
   <rdf:RDF xmlns:rdf="http://www.w3.org/1999/02/22-rdf-syntax-ns#">
      <rdf:Description rdf:about=""/>
   </rdf:RDF>
</x:xmpmeta>
                                                                                                    
                                                                                                    
                                                                                                    
                                                                                                    
                                                                                                    
                                                                                                    
                                                                                                    
                                                                                                    
                                                                                                    
                                                                                                    
                                                                                                    
                                                                                                    
                                                                                                    
                                                                                                    
                                                                                                    
                                                                                                    
                                                                                                    
                                                                                                    
                                                                                                    
                                                                                                    
                           
<?xpacket end="w"?></metadata>
<defs>
    <style>
      .cls-1 {
        fill: #fff;
        fill-rule: evenodd;
      }
    </style>
  </defs>
  <path id="_1" data-name="1" class="cls-1" d="M574.124,1341.37v86.07a9.562,9.562,0,0,0,9.563,9.56h114.75a9.561,9.561,0,0,0,9.562-9.56v-86.07a9.561,9.561,0,0,0-9.562-9.56H583.687A9.562,9.562,0,0,0,574.124,1341.37Zm14.344,4.79v76.5H688.874v-76.5H588.468Zm-14.344-14.35h90.844v90.85H574.124v-90.85ZM564.562,1284h86.062a9.561,9.561,0,0,1,9.563,9.56v114.75a9.561,9.561,0,0,1-9.563,9.56H564.562a9.561,9.561,0,0,1-9.563-9.56V1293.56A9.561,9.561,0,0,1,564.562,1284Zm4.781,14.34h76.5v100.41h-76.5V1298.34Zm38.25,105.19a4.78,4.78,0,1,1-4.781,4.78A4.78,4.78,0,0,1,607.593,1403.53Zm90.844-23.91a4.785,4.785,0,1,1-4.782,4.79A4.782,4.782,0,0,1,698.437,1379.62Z" transform="translate(-555 -1284)"/>
</svg>
